<mxfile host="app.diagrams.net" modified="2023-10-26T15:36:08.274Z" agent="Mozilla/5.0 (Macintosh; Intel Mac OS X 10_15_7) AppleWebKit/537.36 (KHTML, like Gecko) Chrome/118.0.0.0 Safari/537.36" etag="Nb8s8YlkpuRBzc0tlitT" version="22.0.8" type="device">
  <diagram name="Página-1" id="1DUU0DnWeW9gubFZ_t3Z">
    <mxGraphModel dx="1434" dy="641" grid="1" gridSize="10" guides="1" tooltips="1" connect="1" arrows="1" fold="1" page="1" pageScale="1" pageWidth="827" pageHeight="1169" math="0" shadow="0">
      <root>
        <mxCell id="0" />
        <mxCell id="1" parent="0" />
        <mxCell id="4E4wVOVByYHSAjVrO3WF-46" value="Funcionário" style="rounded=0;whiteSpace=wrap;html=1;" vertex="1" parent="1">
          <mxGeometry x="262" y="280" width="120" height="60" as="geometry" />
        </mxCell>
        <mxCell id="4E4wVOVByYHSAjVrO3WF-47" value="Departamento" style="rounded=0;whiteSpace=wrap;html=1;" vertex="1" parent="1">
          <mxGeometry x="102" y="138" width="120" height="60" as="geometry" />
        </mxCell>
        <mxCell id="4E4wVOVByYHSAjVrO3WF-48" value="Projeto" style="rounded=0;whiteSpace=wrap;html=1;" vertex="1" parent="1">
          <mxGeometry x="642" y="210" width="120" height="60" as="geometry" />
        </mxCell>
        <mxCell id="4E4wVOVByYHSAjVrO3WF-49" value="trabalha" style="rhombus;whiteSpace=wrap;html=1;" vertex="1" parent="1">
          <mxGeometry x="122" y="270" width="80" height="80" as="geometry" />
        </mxCell>
        <mxCell id="4E4wVOVByYHSAjVrO3WF-50" value="trabalha" style="rhombus;whiteSpace=wrap;html=1;" vertex="1" parent="1">
          <mxGeometry x="482" y="190" width="80" height="80" as="geometry" />
        </mxCell>
        <mxCell id="4E4wVOVByYHSAjVrO3WF-51" value="" style="endArrow=none;html=1;rounded=0;entryX=0;entryY=0.5;entryDx=0;entryDy=0;" edge="1" parent="1" source="4E4wVOVByYHSAjVrO3WF-49" target="4E4wVOVByYHSAjVrO3WF-46">
          <mxGeometry width="50" height="50" relative="1" as="geometry">
            <mxPoint x="332" y="360" as="sourcePoint" />
            <mxPoint x="382" y="310" as="targetPoint" />
          </mxGeometry>
        </mxCell>
        <mxCell id="4E4wVOVByYHSAjVrO3WF-52" value="" style="endArrow=none;html=1;rounded=0;entryX=0.5;entryY=0;entryDx=0;entryDy=0;exitX=0.5;exitY=1;exitDx=0;exitDy=0;" edge="1" parent="1" source="4E4wVOVByYHSAjVrO3WF-47" target="4E4wVOVByYHSAjVrO3WF-49">
          <mxGeometry width="50" height="50" relative="1" as="geometry">
            <mxPoint x="221" y="139" as="sourcePoint" />
            <mxPoint x="272" y="80" as="targetPoint" />
          </mxGeometry>
        </mxCell>
        <mxCell id="4E4wVOVByYHSAjVrO3WF-53" value="" style="endArrow=none;html=1;rounded=0;entryX=0;entryY=0.5;entryDx=0;entryDy=0;exitX=1;exitY=0.5;exitDx=0;exitDy=0;" edge="1" parent="1" source="4E4wVOVByYHSAjVrO3WF-46" target="4E4wVOVByYHSAjVrO3WF-50">
          <mxGeometry width="50" height="50" relative="1" as="geometry">
            <mxPoint x="231" y="149" as="sourcePoint" />
            <mxPoint x="282" y="90" as="targetPoint" />
          </mxGeometry>
        </mxCell>
        <mxCell id="4E4wVOVByYHSAjVrO3WF-54" value="" style="endArrow=none;html=1;rounded=0;entryX=1;entryY=0.5;entryDx=0;entryDy=0;exitX=0;exitY=0.5;exitDx=0;exitDy=0;" edge="1" parent="1" source="4E4wVOVByYHSAjVrO3WF-48" target="4E4wVOVByYHSAjVrO3WF-50">
          <mxGeometry width="50" height="50" relative="1" as="geometry">
            <mxPoint x="472" y="230" as="sourcePoint" />
            <mxPoint x="292" y="100" as="targetPoint" />
          </mxGeometry>
        </mxCell>
        <mxCell id="4E4wVOVByYHSAjVrO3WF-55" value="N" style="text;html=1;align=center;verticalAlign=middle;resizable=0;points=[];autosize=1;strokeColor=none;fillColor=none;" vertex="1" parent="1">
          <mxGeometry x="232" y="280" width="30" height="30" as="geometry" />
        </mxCell>
        <mxCell id="4E4wVOVByYHSAjVrO3WF-56" value="1" style="text;html=1;align=center;verticalAlign=middle;resizable=0;points=[];autosize=1;strokeColor=none;fillColor=none;" vertex="1" parent="1">
          <mxGeometry x="122" y="198" width="30" height="30" as="geometry" />
        </mxCell>
        <mxCell id="4E4wVOVByYHSAjVrO3WF-57" value="N" style="text;html=1;align=center;verticalAlign=middle;resizable=0;points=[];autosize=1;strokeColor=none;fillColor=none;" vertex="1" parent="1">
          <mxGeometry x="392" y="250" width="30" height="30" as="geometry" />
        </mxCell>
        <mxCell id="4E4wVOVByYHSAjVrO3WF-58" value="N" style="text;html=1;align=center;verticalAlign=middle;resizable=0;points=[];autosize=1;strokeColor=none;fillColor=none;" vertex="1" parent="1">
          <mxGeometry x="602" y="198" width="30" height="30" as="geometry" />
        </mxCell>
        <mxCell id="4E4wVOVByYHSAjVrO3WF-59" value="ID_Dep" style="ellipse;whiteSpace=wrap;html=1;" vertex="1" parent="1">
          <mxGeometry x="32" y="60" width="80" height="50" as="geometry" />
        </mxCell>
        <mxCell id="4E4wVOVByYHSAjVrO3WF-60" value="NomeDep" style="ellipse;whiteSpace=wrap;html=1;" vertex="1" parent="1">
          <mxGeometry x="132" y="60" width="80" height="50" as="geometry" />
        </mxCell>
        <mxCell id="4E4wVOVByYHSAjVrO3WF-61" value="" style="endArrow=none;html=1;rounded=0;entryX=0.588;entryY=1;entryDx=0;entryDy=0;entryPerimeter=0;exitX=0;exitY=0;exitDx=0;exitDy=0;" edge="1" parent="1" source="4E4wVOVByYHSAjVrO3WF-47" target="4E4wVOVByYHSAjVrO3WF-59">
          <mxGeometry width="50" height="50" relative="1" as="geometry">
            <mxPoint x="332" y="360" as="sourcePoint" />
            <mxPoint x="382" y="310" as="targetPoint" />
          </mxGeometry>
        </mxCell>
        <mxCell id="4E4wVOVByYHSAjVrO3WF-62" value="" style="endArrow=none;html=1;rounded=0;entryX=0.5;entryY=1;entryDx=0;entryDy=0;exitX=0.5;exitY=0;exitDx=0;exitDy=0;" edge="1" parent="1" source="4E4wVOVByYHSAjVrO3WF-47" target="4E4wVOVByYHSAjVrO3WF-60">
          <mxGeometry width="50" height="50" relative="1" as="geometry">
            <mxPoint x="112" y="148" as="sourcePoint" />
            <mxPoint x="89" y="120" as="targetPoint" />
          </mxGeometry>
        </mxCell>
        <mxCell id="4E4wVOVByYHSAjVrO3WF-63" value="salário" style="ellipse;whiteSpace=wrap;html=1;" vertex="1" parent="1">
          <mxGeometry x="392" y="380" width="80" height="50" as="geometry" />
        </mxCell>
        <mxCell id="4E4wVOVByYHSAjVrO3WF-64" value="NomeFunc" style="ellipse;whiteSpace=wrap;html=1;" vertex="1" parent="1">
          <mxGeometry x="292" y="380" width="80" height="50" as="geometry" />
        </mxCell>
        <mxCell id="4E4wVOVByYHSAjVrO3WF-65" value="ID_Func" style="ellipse;whiteSpace=wrap;html=1;" vertex="1" parent="1">
          <mxGeometry x="202" y="380" width="80" height="50" as="geometry" />
        </mxCell>
        <mxCell id="4E4wVOVByYHSAjVrO3WF-66" value="ID_Proj" style="ellipse;whiteSpace=wrap;html=1;" vertex="1" parent="1">
          <mxGeometry x="592" y="130" width="80" height="50" as="geometry" />
        </mxCell>
        <mxCell id="4E4wVOVByYHSAjVrO3WF-67" value="NomeProj" style="ellipse;whiteSpace=wrap;html=1;" vertex="1" parent="1">
          <mxGeometry x="732" y="130" width="80" height="50" as="geometry" />
        </mxCell>
        <mxCell id="4E4wVOVByYHSAjVrO3WF-68" value="" style="endArrow=none;html=1;rounded=0;entryX=0.067;entryY=-0.017;entryDx=0;entryDy=0;exitX=0.5;exitY=1;exitDx=0;exitDy=0;entryPerimeter=0;" edge="1" parent="1" source="4E4wVOVByYHSAjVrO3WF-66" target="4E4wVOVByYHSAjVrO3WF-48">
          <mxGeometry width="50" height="50" relative="1" as="geometry">
            <mxPoint x="332" y="360" as="sourcePoint" />
            <mxPoint x="382" y="310" as="targetPoint" />
          </mxGeometry>
        </mxCell>
        <mxCell id="4E4wVOVByYHSAjVrO3WF-69" value="" style="endArrow=none;html=1;rounded=0;entryX=0.583;entryY=0;entryDx=0;entryDy=0;exitX=0.35;exitY=0.96;exitDx=0;exitDy=0;entryPerimeter=0;exitPerimeter=0;" edge="1" parent="1" source="4E4wVOVByYHSAjVrO3WF-67" target="4E4wVOVByYHSAjVrO3WF-48">
          <mxGeometry width="50" height="50" relative="1" as="geometry">
            <mxPoint x="332" y="360" as="sourcePoint" />
            <mxPoint x="382" y="310" as="targetPoint" />
          </mxGeometry>
        </mxCell>
        <mxCell id="4E4wVOVByYHSAjVrO3WF-70" value="" style="endArrow=none;html=1;rounded=0;exitX=0.5;exitY=0;exitDx=0;exitDy=0;entryX=0.25;entryY=1;entryDx=0;entryDy=0;" edge="1" parent="1" source="4E4wVOVByYHSAjVrO3WF-65" target="4E4wVOVByYHSAjVrO3WF-46">
          <mxGeometry width="50" height="50" relative="1" as="geometry">
            <mxPoint x="332" y="360" as="sourcePoint" />
            <mxPoint x="382" y="310" as="targetPoint" />
          </mxGeometry>
        </mxCell>
        <mxCell id="4E4wVOVByYHSAjVrO3WF-71" value="" style="endArrow=none;html=1;rounded=0;exitX=0.5;exitY=0;exitDx=0;exitDy=0;entryX=0.5;entryY=1;entryDx=0;entryDy=0;" edge="1" parent="1" source="4E4wVOVByYHSAjVrO3WF-64" target="4E4wVOVByYHSAjVrO3WF-46">
          <mxGeometry width="50" height="50" relative="1" as="geometry">
            <mxPoint x="332" y="360" as="sourcePoint" />
            <mxPoint x="382" y="310" as="targetPoint" />
          </mxGeometry>
        </mxCell>
        <mxCell id="4E4wVOVByYHSAjVrO3WF-72" value="" style="endArrow=none;html=1;rounded=0;exitX=0.5;exitY=0;exitDx=0;exitDy=0;entryX=0.75;entryY=1;entryDx=0;entryDy=0;" edge="1" parent="1" source="4E4wVOVByYHSAjVrO3WF-63" target="4E4wVOVByYHSAjVrO3WF-46">
          <mxGeometry width="50" height="50" relative="1" as="geometry">
            <mxPoint x="332" y="360" as="sourcePoint" />
            <mxPoint x="382" y="310" as="targetPoint" />
          </mxGeometry>
        </mxCell>
        <mxCell id="4E4wVOVByYHSAjVrO3WF-73" value="coordena" style="rhombus;whiteSpace=wrap;html=1;" vertex="1" parent="1">
          <mxGeometry x="482" y="310" width="80" height="80" as="geometry" />
        </mxCell>
        <mxCell id="4E4wVOVByYHSAjVrO3WF-74" value="" style="endArrow=none;html=1;rounded=0;exitX=0;exitY=0.5;exitDx=0;exitDy=0;" edge="1" parent="1" source="4E4wVOVByYHSAjVrO3WF-73">
          <mxGeometry width="50" height="50" relative="1" as="geometry">
            <mxPoint x="332" y="360" as="sourcePoint" />
            <mxPoint x="382" y="310" as="targetPoint" />
          </mxGeometry>
        </mxCell>
        <mxCell id="4E4wVOVByYHSAjVrO3WF-75" value="" style="endArrow=none;html=1;rounded=0;entryX=1;entryY=0.5;entryDx=0;entryDy=0;exitX=0.425;exitY=1.017;exitDx=0;exitDy=0;exitPerimeter=0;" edge="1" parent="1" source="4E4wVOVByYHSAjVrO3WF-48" target="4E4wVOVByYHSAjVrO3WF-73">
          <mxGeometry width="50" height="50" relative="1" as="geometry">
            <mxPoint x="402" y="340" as="sourcePoint" />
            <mxPoint x="382" y="310" as="targetPoint" />
          </mxGeometry>
        </mxCell>
        <mxCell id="4E4wVOVByYHSAjVrO3WF-76" value="1" style="text;html=1;align=center;verticalAlign=middle;resizable=0;points=[];autosize=1;strokeColor=none;fillColor=none;" vertex="1" parent="1">
          <mxGeometry x="377" y="308" width="30" height="30" as="geometry" />
        </mxCell>
        <mxCell id="4E4wVOVByYHSAjVrO3WF-77" value="1" style="text;html=1;align=center;verticalAlign=middle;resizable=0;points=[];autosize=1;strokeColor=none;fillColor=none;" vertex="1" parent="1">
          <mxGeometry x="677" y="268" width="30" height="30" as="geometry" />
        </mxCell>
        <mxCell id="4E4wVOVByYHSAjVrO3WF-78" value="DataEntrega" style="ellipse;whiteSpace=wrap;html=1;" vertex="1" parent="1">
          <mxGeometry x="662" y="80" width="80" height="50" as="geometry" />
        </mxCell>
        <mxCell id="4E4wVOVByYHSAjVrO3WF-79" value="" style="endArrow=none;html=1;rounded=0;entryX=0.4;entryY=0.96;entryDx=0;entryDy=0;entryPerimeter=0;exitX=0.408;exitY=0.017;exitDx=0;exitDy=0;exitPerimeter=0;" edge="1" parent="1" source="4E4wVOVByYHSAjVrO3WF-48" target="4E4wVOVByYHSAjVrO3WF-78">
          <mxGeometry width="50" height="50" relative="1" as="geometry">
            <mxPoint x="602" y="420" as="sourcePoint" />
            <mxPoint x="652" y="370" as="targetPoint" />
          </mxGeometry>
        </mxCell>
      </root>
    </mxGraphModel>
  </diagram>
</mxfile>
